<svg width="68" height="75" viewBox="0 0 68 75" fill="none" xmlns="http://www.w3.org/2000/svg">
<g clip-path="url(#clip0)">
<path d="M54.3321 35.696C54.1222 35.4738 54.8167 36.1721 42.7259 24.0811C42.0976 23.4525 41.1522 23.2649 40.3313 23.6047C39.5103 23.9449 38.9749 24.7461 38.9749 25.6347V72.8026C38.9749 74.0161 39.9586 74.9999 41.1721 74.9999H52.8909C53.9387 74.9999 54.8409 74.26 55.0457 73.2324L59.1399 52.7027C60.3813 46.5215 58.5818 40.1614 54.3321 35.696Z" fill="#F5DCCC"/>
<path d="M46.4109 42.3305L39.6184 35.5381C38.7603 34.68 38.7603 33.2888 39.6184 32.4307C40.4763 31.5726 41.8676 31.5726 42.7258 32.4307L49.5182 39.2232C50.3763 40.0813 50.3763 41.4724 49.5182 42.3305C48.6604 43.1885 47.269 43.1886 46.4109 42.3305Z" fill="#F0CABB"/>
<path d="M43.3694 6.5918V68.4082C43.3694 72.0425 40.4119 75 36.7776 75H8.06665C4.43237 75 1.47485 72.0425 1.47485 68.4082V6.5918C1.47485 2.95752 4.43237 0 8.06665 0H36.7776C40.4119 0 43.3694 2.95752 43.3694 6.5918Z" fill="#BCEAF9"/>
<path d="M43.3694 6.5918V68.4082C43.3694 72.0425 40.4119 75 36.7776 75H22.4221V0H36.7776C40.4119 0 43.3694 2.95752 43.3694 6.5918Z" fill="#78B7EA"/>
<path d="M36.7776 0H8.06665C4.43237 0 1.47485 2.95752 1.47485 6.5918V68.4082C1.47485 72.0425 4.43237 75 8.06665 75H36.7776C40.4119 75 43.3694 72.0425 43.3694 68.4082V6.5918C43.3694 2.95752 40.4119 0 36.7776 0ZM38.9749 61.084H5.86939V6.5918C5.86939 5.38037 6.85523 4.39453 8.06665 4.39453H36.7776C37.989 4.39453 38.9749 5.38037 38.9749 6.5918V61.084Z" fill="#425796"/>
<path d="M43.3694 6.5918V68.4082C43.3694 72.0425 40.4119 75 36.7776 75H22.4221V61.084H38.9749V6.5918C38.9749 5.38037 37.989 4.39453 36.7776 4.39453H22.4221V0H36.7776C40.4119 0 43.3694 2.95752 43.3694 6.5918Z" fill="#283758"/>
<path d="M39.0382 34.8509C37.7851 33.5791 36.0552 32.8047 34.1407 32.8047C30.3393 32.8047 27.2559 35.8794 27.2559 39.6887C27.2559 41.5196 27.9652 43.241 29.2538 44.539L37.6711 53.3255C36.7166 54.0527 35.6096 55.0649 34.528 56.4355C31.2579 60.5799 29.5998 66.0867 29.5998 72.803V75.0002H45.7131V41.7807L39.0382 34.8509Z" fill="#F5DCCC"/>
</g>
<defs>
<clipPath id="clip0">
<rect width="68" height="75" fill="white"/>
</clipPath>
</defs>
</svg>
