<svg width="72" height="70" viewBox="0 0 72 70" fill="none" xmlns="http://www.w3.org/2000/svg">
<path d="M66.1406 5.85938H2.85938C1.56496 5.85938 0.515625 6.90871 0.515625 8.20312V55.0781C0.515625 56.3725 1.56496 57.4219 2.85938 57.4219H66.1406C67.435 57.4219 68.4844 56.3725 68.4844 55.0781V8.20312C68.4844 6.90871 67.435 5.85938 66.1406 5.85938Z" fill="#E9EEF2"/>
<path d="M5.20312 10.5469H63.7969V48.0469H5.20312V10.5469Z" fill="#3397E8"/>
<path d="M34.5 55.0781C35.7944 55.0781 36.8438 54.0288 36.8438 52.7344C36.8438 51.44 35.7944 50.3906 34.5 50.3906C33.2056 50.3906 32.1562 51.44 32.1562 52.7344C32.1562 54.0288 33.2056 55.0781 34.5 55.0781Z" fill="#C3C6C7"/>
<path d="M41.5312 64.4531H27.4688L28.6406 57.4219H40.3594L41.5312 64.4531Z" fill="#DADCDE"/>
<path d="M22.7812 64.4531H46.2188C46.8404 64.4531 47.4365 64.7001 47.876 65.1396C48.3156 65.5791 48.5625 66.1753 48.5625 66.7969V69.1406H20.4375V66.7969C20.4375 66.1753 20.6844 65.5791 21.124 65.1396C21.5635 64.7001 22.1596 64.4531 22.7812 64.4531Z" fill="#C3C6C7"/>
<path d="M5.20312 29.2969H63.7969V48.0469H5.20312V29.2969Z" fill="#2978B8"/>
<path d="M20.4025 14.9501C20.3271 14.6486 20.1351 14.3895 19.8686 14.2296C19.6021 14.0696 19.2831 14.0221 18.9816 14.0974L14.2941 15.2693C14.0405 15.3327 13.8154 15.479 13.6545 15.685C13.4937 15.891 13.4063 16.1448 13.4062 16.4062V18.9515C12.7026 18.7027 11.9381 18.6843 11.2233 18.899C10.5085 19.1136 9.88061 19.5501 9.43042 20.1453C8.98023 20.7406 8.73114 21.4636 8.7192 22.2098C8.70726 22.956 8.9331 23.6867 9.36402 24.296C9.79495 24.9053 10.4086 25.3617 11.1161 25.5991C11.8237 25.8365 12.5884 25.8425 13.2996 25.6164C14.0109 25.3903 14.6317 24.9437 15.0722 24.3413C15.5127 23.7388 15.7501 23.0119 15.75 22.2656V17.3211L19.5498 16.3712C19.8513 16.2958 20.1105 16.1037 20.2704 15.8372C20.4303 15.5707 20.4778 15.2516 20.4025 14.9501ZM12.2344 23.4374C12.0026 23.4374 11.776 23.3687 11.5833 23.2399C11.3906 23.1112 11.2404 22.9281 11.1517 22.714C11.063 22.4999 11.0398 22.2643 11.085 22.0369C11.1302 21.8096 11.2418 21.6008 11.4057 21.4369C11.5696 21.273 11.7784 21.1614 12.0058 21.1162C12.2331 21.071 12.4687 21.0942 12.6828 21.1829C12.897 21.2716 13.08 21.4218 13.2088 21.6145C13.3375 21.8072 13.4062 22.0338 13.4062 22.2656C13.4059 22.5763 13.2823 22.8741 13.0626 23.0938C12.8429 23.3135 12.5451 23.4371 12.2344 23.4374Z" fill="#2978B8"/>
<path d="M22.7812 10.5469H25.125V29.2969H22.7812V10.5469Z" fill="#2978B8"/>
<path d="M59.1094 23.4375H57.9375V22.2656C57.9375 21.9548 57.814 21.6568 57.5943 21.437C57.3745 21.2172 57.0764 21.0938 56.7656 21.0938C56.4548 21.0938 56.1568 21.2172 55.937 21.437C55.7172 21.6568 55.5938 21.9548 55.5938 22.2656V23.4375H53.25V17.5781C53.25 17.2673 53.1265 16.9693 52.9068 16.7495C52.687 16.5297 52.3889 16.4062 52.0781 16.4062C51.7673 16.4062 51.4693 16.5297 51.2495 16.7495C51.0297 16.9693 50.9062 17.2673 50.9062 17.5781V23.4375H48.5625V15.2344C48.5625 14.9236 48.439 14.6255 48.2193 14.4057C47.9995 14.186 47.7014 14.0625 47.3906 14.0625C47.0798 14.0625 46.7818 14.186 46.562 14.4057C46.3422 14.6255 46.2188 14.9236 46.2188 15.2344V23.4375H43.875V19.9219C43.875 19.6111 43.7515 19.313 43.5318 19.0932C43.312 18.8735 43.0139 18.75 42.7031 18.75C42.3923 18.75 42.0943 18.8735 41.8745 19.0932C41.6547 19.313 41.5312 19.6111 41.5312 19.9219V23.4375H39.1875V22.2656C39.1875 21.9548 39.064 21.6568 38.8443 21.437C38.6245 21.2172 38.3264 21.0938 38.0156 21.0938C37.7048 21.0938 37.4068 21.2172 37.187 21.437C36.9672 21.6568 36.8438 21.9548 36.8438 22.2656V23.4375H34.5V17.5781C34.5 17.2673 34.3765 16.9693 34.1568 16.7495C33.937 16.5297 33.6389 16.4062 33.3281 16.4062C33.0173 16.4062 32.7193 16.5297 32.4995 16.7495C32.2797 16.9693 32.1562 17.2673 32.1562 17.5781V23.4375H29.8125V19.9219C29.8125 19.6111 29.689 19.313 29.4693 19.0932C29.2495 18.8735 28.9514 18.75 28.6406 18.75C28.3298 18.75 28.0318 18.8735 27.812 19.0932C27.5922 19.313 27.4688 19.6111 27.4688 19.9219V24.6094C27.4688 24.9202 27.5922 25.2182 27.812 25.438C28.0318 25.6578 28.3298 25.7812 28.6406 25.7812H59.1094C59.4202 25.7812 59.7182 25.6578 59.938 25.438C60.1578 25.2182 60.2812 24.9202 60.2812 24.6094C60.2812 24.2986 60.1578 24.0005 59.938 23.7807C59.7182 23.561 59.4202 23.4375 59.1094 23.4375Z" fill="#88C791"/>
<path d="M21.6094 35.1562H9.89062C9.57982 35.1562 9.28175 35.0328 9.06198 34.813C8.84222 34.5932 8.71875 34.2952 8.71875 33.9844C8.71875 33.6736 8.84222 33.3755 9.06198 33.1557C9.28175 32.936 9.57982 32.8125 9.89062 32.8125H21.6094C21.9202 32.8125 22.2182 32.936 22.438 33.1557C22.6578 33.3755 22.7812 33.6736 22.7812 33.9844C22.7812 34.2952 22.6578 34.5932 22.438 34.813C22.2182 35.0328 21.9202 35.1562 21.6094 35.1562Z" fill="#F7B030"/>
<path d="M21.6094 39.8438H9.89062C9.57982 39.8438 9.28175 39.7203 9.06198 39.5005C8.84222 39.2807 8.71875 38.9827 8.71875 38.6719C8.71875 38.3611 8.84222 38.063 9.06198 37.8432C9.28175 37.6235 9.57982 37.5 9.89062 37.5H21.6094C21.9202 37.5 22.2182 37.6235 22.438 37.8432C22.6578 38.063 22.7812 38.3611 22.7812 38.6719C22.7812 38.9827 22.6578 39.2807 22.438 39.5005C22.2182 39.7203 21.9202 39.8438 21.6094 39.8438Z" fill="#88C791"/>
<path d="M21.6094 44.5312H9.89062C9.57982 44.5312 9.28175 44.4078 9.06198 44.188C8.84222 43.9682 8.71875 43.6702 8.71875 43.3594C8.71875 43.0486 8.84222 42.7505 9.06198 42.5307C9.28175 42.311 9.57982 42.1875 9.89062 42.1875H21.6094C21.9202 42.1875 22.2182 42.311 22.438 42.5307C22.6578 42.7505 22.7812 43.0486 22.7812 43.3594C22.7812 43.6702 22.6578 43.9682 22.438 44.188C22.2182 44.4078 21.9202 44.5312 21.6094 44.5312Z" fill="#0F5287"/>
<path d="M28.6406 44.5312C28.3298 44.5312 28.0318 44.4078 27.812 44.188C27.5922 43.9682 27.4688 43.6702 27.4688 43.3594V33.9844C27.4688 33.6736 27.5922 33.3755 27.812 33.1557C28.0318 32.936 28.3298 32.8125 28.6406 32.8125C28.9514 32.8125 29.2495 32.936 29.4693 33.1557C29.689 33.3755 29.8125 33.6736 29.8125 33.9844V43.3594C29.8125 43.6702 29.689 43.9682 29.4693 44.188C29.2495 44.4078 28.9514 44.5312 28.6406 44.5312Z" fill="#0F5287"/>
<path d="M30.9844 37.5H26.2969C25.9861 37.5 25.688 37.3765 25.4682 37.1568C25.2485 36.937 25.125 36.6389 25.125 36.3281C25.125 36.0173 25.2485 35.7193 25.4682 35.4995C25.688 35.2797 25.9861 35.1562 26.2969 35.1562H30.9844C31.2952 35.1562 31.5932 35.2797 31.813 35.4995C32.0328 35.7193 32.1562 36.0173 32.1562 36.3281C32.1562 36.6389 32.0328 36.937 31.813 37.1568C31.5932 37.3765 31.2952 37.5 30.9844 37.5Z" fill="#88C791"/>
<path d="M38.0156 44.5312C37.7048 44.5312 37.4068 44.4078 37.187 44.188C36.9672 43.9682 36.8438 43.6702 36.8438 43.3594V33.9844C36.8438 33.6736 36.9672 33.3755 37.187 33.1557C37.4068 32.936 37.7048 32.8125 38.0156 32.8125C38.3264 32.8125 38.6245 32.936 38.8443 33.1557C39.064 33.3755 39.1875 33.6736 39.1875 33.9844V43.3594C39.1875 43.6702 39.064 43.9682 38.8443 44.188C38.6245 44.4078 38.3264 44.5312 38.0156 44.5312Z" fill="#0F5287"/>
<path d="M40.3594 42.1875H35.6719C35.3611 42.1875 35.063 42.064 34.8432 41.8443C34.6235 41.6245 34.5 41.3264 34.5 41.0156C34.5 40.7048 34.6235 40.4068 34.8432 40.187C35.063 39.9672 35.3611 39.8438 35.6719 39.8438H40.3594C40.6702 39.8438 40.9682 39.9672 41.188 40.187C41.4078 40.4068 41.5312 40.7048 41.5312 41.0156C41.5312 41.3264 41.4078 41.6245 41.188 41.8443C40.9682 42.064 40.6702 42.1875 40.3594 42.1875Z" fill="#88C791"/>
<path d="M47.3906 44.5312C47.0798 44.5312 46.7818 44.4078 46.562 44.188C46.3422 43.9682 46.2188 43.6702 46.2188 43.3594V33.9844C46.2188 33.6736 46.3422 33.3755 46.562 33.1557C46.7818 32.936 47.0798 32.8125 47.3906 32.8125C47.7014 32.8125 47.9995 32.936 48.2193 33.1557C48.439 33.3755 48.5625 33.6736 48.5625 33.9844V43.3594C48.5625 43.6702 48.439 43.9682 48.2193 44.188C47.9995 44.4078 47.7014 44.5312 47.3906 44.5312Z" fill="#0F5287"/>
<path d="M49.7344 37.5H45.0469C44.7361 37.5 44.438 37.3765 44.2182 37.1568C43.9985 36.937 43.875 36.6389 43.875 36.3281C43.875 36.0173 43.9985 35.7193 44.2182 35.4995C44.438 35.2797 44.7361 35.1562 45.0469 35.1562H49.7344C50.0452 35.1562 50.3432 35.2797 50.563 35.4995C50.7828 35.7193 50.9062 36.0173 50.9062 36.3281C50.9062 36.6389 50.7828 36.937 50.563 37.1568C50.3432 37.3765 50.0452 37.5 49.7344 37.5Z" fill="#88C791"/>
<path d="M56.7656 44.5312C56.4548 44.5312 56.1568 44.4078 55.937 44.188C55.7172 43.9682 55.5938 43.6702 55.5938 43.3594V33.9844C55.5938 33.6736 55.7172 33.3755 55.937 33.1557C56.1568 32.936 56.4548 32.8125 56.7656 32.8125C57.0764 32.8125 57.3745 32.936 57.5943 33.1557C57.814 33.3755 57.9375 33.6736 57.9375 33.9844V43.3594C57.9375 43.6702 57.814 43.9682 57.5943 44.188C57.3745 44.4078 57.0764 44.5312 56.7656 44.5312Z" fill="#0F5287"/>
<path d="M59.1094 35.1562H54.4219C54.1111 35.1562 53.813 35.0328 53.5932 34.813C53.3735 34.5932 53.25 34.2952 53.25 33.9844C53.25 33.6736 53.3735 33.3755 53.5932 33.1557C53.813 32.936 54.1111 32.8125 54.4219 32.8125H59.1094C59.4202 32.8125 59.7182 32.936 59.938 33.1557C60.1578 33.3755 60.2812 33.6736 60.2812 33.9844C60.2812 34.2952 60.1578 34.5932 59.938 34.813C59.7182 35.0328 59.4202 35.1562 59.1094 35.1562Z" fill="#88C791"/>
</svg>
