<svg width="75" height="64" viewBox="0 0 75 64" fill="none" xmlns="http://www.w3.org/2000/svg">
<g clip-path="url(#clip0)">
<path d="M4.12838 11.8454C3.54904 10.779 2.21517 10.3847 1.14877 10.9635C0.0825266 11.5428 -0.312391 12.8768 0.266948 13.9431L16.8195 44.4115C17.2178 45.1446 17.9727 45.5603 18.7522 45.5603C20.3947 45.5603 21.4829 43.7898 20.6809 42.3138L4.12838 11.8454Z" fill="#425796"/>
<path d="M73.8511 10.9633C72.7849 10.3839 71.4507 10.7787 70.8715 11.8452L54.319 42.3136C53.5188 43.7866 54.6011 45.5601 56.2477 45.5601C57.0272 45.5601 57.7821 45.1444 58.1804 44.4113L74.733 13.9429C75.3122 12.8766 74.9174 11.5426 73.8511 10.9633Z" fill="#283758"/>
<path d="M74.9994 43.3623V62.1121C74.9994 63.3249 74.0151 64.3093 72.8022 64.3093H2.19755C0.984669 64.3093 0.000305176 63.3249 0.000305176 62.1121V43.3623C0.000305176 42.1494 0.984669 41.165 2.19755 41.165H72.8022C74.0151 41.165 74.9994 42.1494 74.9994 43.3623Z" fill="#EEF4FF"/>
<path d="M74.9995 43.3623V62.1121C74.9995 63.3249 74.0152 64.3093 72.8023 64.3093H37.5V41.165H72.8023C74.0152 41.165 74.9995 42.1494 74.9995 43.3623Z" fill="#D9E6FC"/>
<path d="M58.447 52.7373C58.447 53.9502 57.4627 54.9345 56.2498 54.9345H18.7502C17.5373 54.9345 16.553 53.9502 16.553 52.7373C16.553 51.5244 17.5373 50.54 18.7502 50.54H56.2498C57.4627 50.54 58.447 51.5244 58.447 52.7373Z" fill="#D9E6FC"/>
<path d="M58.447 52.7373C58.447 53.9502 57.4627 54.9345 56.2498 54.9345H37.5V50.54H56.2498C57.4627 50.54 58.447 51.5244 58.447 52.7373Z" fill="#BED9FD"/>
<path d="M43.1967 34.913C42.3383 35.7714 40.9496 35.7729 40.0898 34.913C39.3749 34.1982 38.4374 33.8393 37.4999 33.8393C36.5624 33.8393 35.625 34.1982 34.9101 34.913C34.0517 35.7714 32.6616 35.7714 31.8032 34.913C30.9448 34.0546 30.9448 32.6645 31.8032 31.8061C33.3735 30.2344 35.436 29.4492 37.4999 29.4492C39.5639 29.4492 41.6264 30.2344 43.1967 31.8061C44.055 32.6645 44.055 34.0546 43.1967 34.913Z" fill="#DD5958"/>
<path d="M43.1968 31.8062C44.0552 32.6645 44.0552 34.0547 43.1968 34.9131C42.3384 35.7715 40.9497 35.7729 40.0899 34.9131C39.375 34.1982 38.4375 33.8394 37.5 33.8394V29.4492C39.564 29.4492 41.6265 30.2344 43.1968 31.8062Z" fill="#D8225B"/>
<path d="M49.8265 28.2851C48.974 29.1376 47.5794 29.1464 46.7181 28.2851C44.1767 25.7436 40.8383 24.4721 37.5 24.4721C34.1616 24.4721 30.8233 25.7436 28.2818 28.2851C27.4234 29.142 26.0318 29.142 25.1735 28.2851C24.3165 27.4267 24.3165 26.0351 25.1735 25.1767C28.5719 21.7798 33.0366 20.0806 37.5 20.0806C41.9633 20.0806 46.4281 21.7798 49.8265 25.1767C50.6834 26.0351 50.6834 27.4267 49.8265 28.2851Z" fill="#FFE278"/>
<path d="M49.8265 25.1767C50.6834 26.0351 50.6834 27.4267 49.8265 28.2851C48.974 29.1376 47.5795 29.1464 46.7181 28.2851C44.1767 25.7436 40.8383 24.4721 37.5 24.4721V20.0806C41.9633 20.0806 46.4281 21.7798 49.8265 25.1767Z" fill="#FFB454"/>
<path d="M56.4548 21.6551C55.5964 22.5135 54.2077 22.515 53.3479 21.6551C48.9739 17.2826 43.2376 15.0883 37.4999 15.0869C31.771 15.0854 26.0376 17.2709 21.6519 21.6551C20.795 22.5135 19.4034 22.5135 18.545 21.6551C17.6866 20.7982 17.6866 19.4066 18.545 18.5483C23.7833 13.31 30.6416 10.6909 37.4999 10.6909C44.3582 10.6909 51.2165 13.31 56.4548 18.5483C57.3131 19.4066 57.3131 20.7982 56.4548 21.6551Z" fill="#94DFDA"/>
<path d="M56.4549 21.6551C55.5965 22.5135 54.2078 22.515 53.348 21.6551C48.974 17.2826 43.2377 15.0883 37.5 15.0869V10.6909C44.3583 10.6909 51.2166 13.31 56.4549 18.5483C57.3132 19.4066 57.3132 20.7982 56.4549 21.6551Z" fill="#61A7C5"/>
</g>
<defs>
<clipPath id="clip0">
<rect width="75" height="64" fill="white"/>
</clipPath>
</defs>
</svg>
