<svg width="69" height="75" viewBox="0 0 69 75" fill="none" xmlns="http://www.w3.org/2000/svg">
<g clip-path="url(#clip0)">
<path d="M54.8666 13.6379C48.6205 7.37713 39.9692 4.22333 31.5258 4.9367C27.0068 5.31756 22.5463 6.80731 18.5473 9.5202C9.66741 15.5436 4.63274 26.5695 6.87542 37.9499L1.46868 43.3552C-0.583569 45.409 -0.505932 48.7751 1.65178 50.7336C3.12834 52.0739 4.5844 52.9733 6.0009 53.423C6.49456 57.756 8.5761 62.1403 10.3588 65.2209C11.7475 67.6232 14.4252 68.9518 17.1806 68.6061L21.4946 68.0671L22.3266 73.1574C22.4994 74.2194 23.4179 75.0002 24.4946 75.0002H47.9321C49.3764 75.0002 50.4047 73.654 50.0678 72.2873C50.0488 72.2038 48.1532 63.759 53.85 52.235C54.9926 49.9382 56.4003 47.6457 57.8608 45.5422C59.1235 43.7214 60.3437 41.8244 61.2797 39.8439C62.3241 37.6349 63.0141 35.3249 63.0199 32.9035C63.0361 25.7653 60.1401 18.923 54.8666 13.6379ZM31.5258 47.0583V39.8439H33.6088C33.329 42.6725 32.5527 45.0602 31.5258 47.0583Z" fill="#F5DCCC"/>
<path d="M63.02 32.9035C63.0142 35.3249 62.3242 37.6349 61.2798 39.8439C60.3437 41.8244 59.1235 43.7214 57.8608 45.5422C56.4004 47.6457 54.9927 49.9382 53.8501 52.235C48.1533 63.759 50.0488 72.2038 50.0679 72.2873C50.4048 73.654 49.3765 75.0002 47.9321 75.0002H31.5259V4.9367C39.9692 4.22333 48.6206 7.37713 54.8667 13.6379C60.1401 18.923 63.0361 25.7653 63.02 32.9035Z" fill="#F0CABB"/>
<path d="M54.8669 13.6377C45.2773 4.0267 30.0212 1.73597 18.5479 9.51971C14.2179 12.4572 10.8095 16.5592 8.69122 21.3822C8.20328 22.4935 8.70924 23.7915 9.82164 24.2785C16.3957 27.1572 23.39 26.4309 29.8443 23.4571C30.4434 23.18 31.1246 22.868 31.4977 22.9038C31.8845 22.9425 32.3709 23.5077 32.5818 24.1645C32.9068 25.1754 32.8447 26.4955 32.8633 27.7824C32.9184 31.5332 33.5949 35.2255 34.8744 38.7581C35.7951 41.2942 36.8965 43.3536 38.2408 45.053C42.03 49.8475 47.6698 51.7917 51.7383 52.5784C51.9494 52.6208 52.0888 52.6454 52.2949 52.6454C53.1012 52.6454 53.8589 52.2001 54.2429 51.4638C55.2163 49.5964 56.4672 47.549 57.8609 45.5429C60.5345 41.6921 63.0098 37.4956 63.0199 32.904C63.036 25.7654 60.1405 18.9231 54.8669 13.6377Z" fill="#FFB454"/>
<path d="M54.867 13.6372C48.6203 7.37675 39.9695 4.22367 31.5259 4.93661V22.9085C31.9081 22.9703 32.3762 23.5228 32.582 24.1642C32.9071 25.175 32.845 26.4952 32.8636 27.782C32.9187 31.5329 33.5951 35.2252 34.8747 38.7578C35.7953 41.2939 36.8967 43.3533 38.241 45.0527C42.0303 49.8471 47.6701 51.7914 51.7385 52.578C51.9496 52.6205 52.0891 52.6451 52.2952 52.6451C53.1014 52.6451 53.8592 52.1998 54.2431 51.4634C55.2165 49.596 56.4675 47.5486 57.8611 45.5425C60.5348 41.6917 63.01 37.4953 63.0202 32.9037C63.0361 25.7649 60.1406 18.9226 54.867 13.6372Z" fill="#FF9D21"/>
<path d="M18.548 9.51929C14.218 12.4567 10.8096 16.5587 8.69132 21.3817C8.20338 22.4931 8.70948 23.7911 9.82174 24.278C16.3958 27.1567 23.3901 26.4305 29.8444 23.4567C30.4435 23.1795 31.1247 22.8675 31.4978 22.9034C31.507 22.9043 31.5164 22.9069 31.5257 22.9085V4.93652C27.0071 5.31812 22.5477 6.80581 18.548 9.51929Z" fill="#FFB454"/>
<path d="M38.4106 2.19727V30.4688C38.4106 31.6816 37.4263 32.666 36.2134 32.666H26.8384C25.6255 32.666 24.6411 31.6816 24.6411 30.4688V2.19727C24.6411 0.984375 25.6255 0 26.8384 0H36.2134C37.4263 0 38.4106 0.984375 38.4106 2.19727Z" fill="#425796"/>
<path d="M38.4105 2.19727V30.4688C38.4105 31.6816 37.4261 32.666 36.2133 32.666H31.4994V0H36.2133C37.4261 0 38.4105 0.984375 38.4105 2.19727Z" fill="#283758"/>
<path d="M43.0981 35.1562C43.0981 41.4898 37.9652 46.7285 31.4995 46.7285C25.1304 46.7139 19.9536 41.5283 19.9536 35.1562C19.9536 28.7842 25.1304 23.5986 31.4995 23.584C37.9599 23.584 43.0981 28.8179 43.0981 35.1562Z" fill="#EEF4FF"/>
<path d="M43.098 35.1563C43.098 41.4898 37.965 46.7285 31.4994 46.7285C31.4994 22.4731 31.4847 23.584 31.5257 23.584C37.9066 23.584 43.098 28.7754 43.098 35.1563Z" fill="#D9E6FC"/>
<path d="M33.7231 37.5C33.7231 38.313 33.6836 39.0938 33.6089 39.8438H31.5259V47.0581C30.1035 49.8267 28.2007 51.8482 26.4722 53.2632C22.9287 56.1621 19.3633 57.1567 19.2139 57.1978C18.042 57.5171 16.835 56.8272 16.5156 55.6567C16.1963 54.4878 16.8833 53.2822 18.0508 52.96C18.124 52.9395 21.0083 52.1001 23.812 49.7593C27.4726 46.7065 29.3286 42.5815 29.3286 37.5C29.3286 36.2871 30.313 35.3027 31.5259 35.3027C32.7388 35.3027 33.7231 36.2871 33.7231 37.5Z" fill="#425796"/>
<path d="M33.7231 37.5C33.7231 41.3789 32.8252 44.5298 31.5259 47.0581V35.3027C32.7388 35.3027 33.7231 36.2871 33.7231 37.5Z" fill="#283758"/>
</g>
<defs>
<clipPath id="clip0">
<rect width="69" height="75" fill="white"/>
</clipPath>
</defs>
</svg>
