<svg width="66" height="66" viewBox="0 0 66 66" fill="none" xmlns="http://www.w3.org/2000/svg">
<path d="M3.99609 17.6602H62.0039V25.3945H3.99609V17.6602Z" fill="#384949"/>
<path d="M33 17.6602H62.0039V25.3945H33V17.6602Z" fill="#293939"/>
<path d="M3.99609 40.8633H62.0039V48.5977H3.99609V40.8633Z" fill="#384949"/>
<path d="M33 40.8633H62.0039V48.5977H33V40.8633Z" fill="#293939"/>
<path d="M0 0V19.5938H66V0H0Z" fill="#4A696F"/>
<path d="M33 0H66V19.5938H33V0Z" fill="#384949"/>
<path d="M7.86328 7.99219H11.7305V11.8594H7.86328V7.99219Z" fill="#9BFCFF"/>
<path d="M15.5977 7.99219H19.4648V11.8594H15.5977V7.99219Z" fill="#9BFCFF"/>
<path d="M23.332 7.99219H27.1992V11.8594H23.332V7.99219Z" fill="#9BFCFF"/>
<path d="M38.8008 7.99219H58.1367V11.8594H38.8008V7.99219Z" fill="#293939"/>
<path d="M0 23.4609V42.7969H66V23.4609H0Z" fill="#4A696F"/>
<path d="M33 23.4609H66V42.7969H33V23.4609Z" fill="#384949"/>
<path d="M7.86328 31.1953H11.7305V35.0625H7.86328V31.1953Z" fill="#9BFCFF"/>
<path d="M15.5977 31.1953H19.4648V35.0625H15.5977V31.1953Z" fill="#9BFCFF"/>
<path d="M23.332 31.1953H27.1992V35.0625H23.332V31.1953Z" fill="#9BFCFF"/>
<path d="M38.8008 31.1953H58.1367V35.0625H38.8008V31.1953Z" fill="#293939"/>
<path d="M0 46.6641V66H66V46.6641H0Z" fill="#4A696F"/>
<path d="M33 46.6641H66V66H33V46.6641Z" fill="#384949"/>
<path d="M7.86328 54.3984H11.7305V58.2656H7.86328V54.3984Z" fill="#9BFCFF"/>
<path d="M15.5977 54.3984H19.4648V58.2656H15.5977V54.3984Z" fill="#9BFCFF"/>
<path d="M23.332 54.3984H27.1992V58.2656H23.332V54.3984Z" fill="#9BFCFF"/>
<path d="M38.8008 54.3984H58.1367V58.2656H38.8008V54.3984Z" fill="#293939"/>
</svg>
