<svg width="70" height="70" viewBox="0 0 70 70" fill="none" xmlns="http://www.w3.org/2000/svg">
<path d="M47.9883 30.625V39.375C47.9883 40.507 47.0695 41.4258 45.9375 41.4258H24.0625C22.9305 41.4258 22.0117 40.507 22.0117 39.375V30.625C22.0117 22.893 27.1462 15.4492 35 15.4492C42.8553 15.4492 47.9883 22.8951 47.9883 30.625Z" fill="#DD5958"/>
<path d="M47.9883 30.625V39.375C47.9883 40.507 47.0695 41.4258 45.9375 41.4258H35V15.4492C42.8553 15.4492 47.9883 22.8951 47.9883 30.625Z" fill="#D8225B"/>
<path d="M44.707 9.84375C44.707 15.1963 40.3525 19.5508 35 19.5508C29.6475 19.5508 25.293 15.1963 25.293 9.84375C25.293 4.46879 29.6436 0 35 0C40.3532 0 44.707 4.46605 44.707 9.84375Z" fill="#F5DCCC"/>
<path d="M44.707 9.84375C44.707 15.1963 40.3525 19.5508 35 19.5508V0C40.3532 0 44.707 4.46605 44.707 9.84375Z" fill="#F0CABB"/>
<path d="M6.5625 41.4258C5.42992 41.4258 4.51172 40.5076 4.51172 39.375V30.625C4.51172 30.2533 4.61275 29.8885 4.80402 29.5698L9.11477 22.3853C9.69746 21.414 10.9568 21.0989 11.9284 21.6818C12.8997 22.2645 13.2146 23.5244 12.6319 24.4955L8.61328 31.1931V39.375C8.61328 40.5076 7.69508 41.4258 6.5625 41.4258Z" fill="#425796"/>
<path d="M13.125 26.1133C16.6739 26.1133 19.5508 23.2364 19.5508 19.6875C19.5508 16.1386 16.6739 13.2617 13.125 13.2617C9.57614 13.2617 6.69922 16.1386 6.69922 19.6875C6.69922 23.2364 9.57614 26.1133 13.125 26.1133Z" fill="#283758"/>
<path d="M63.4374 41.4257C62.3048 41.4257 61.3866 40.5075 61.3866 39.3749V31.1929L57.3681 24.4955C56.7852 23.5243 57.1002 22.2645 58.0715 21.6818C59.0429 21.0989 60.3025 21.414 60.8851 22.3853L65.1959 29.5698C65.387 29.8885 65.4882 30.2533 65.4882 30.625V39.375C65.4882 40.5075 64.57 41.4257 63.4374 41.4257Z" fill="#283758"/>
<path d="M56.875 26.1133C60.4239 26.1133 63.3008 23.2364 63.3008 19.6875C63.3008 16.1386 60.4239 13.2617 56.875 13.2617C53.3261 13.2617 50.4492 16.1386 50.4492 19.6875C50.4492 23.2364 53.3261 26.1133 56.875 26.1133Z" fill="#182135"/>
<path d="M61.1133 50.3125V67.9492C61.1133 69.0812 60.1945 70 59.0625 70H10.9375C9.80547 70 8.88672 69.0812 8.88672 67.9492V50.3125C8.88672 49.1805 9.80547 48.2617 10.9375 48.2617H59.0625C60.1945 48.2617 61.1133 49.1805 61.1133 50.3125Z" fill="#EEF4FF"/>
<path d="M61.1133 50.3125V67.9492C61.1133 69.0812 60.1945 70 59.0625 70H35V48.2617H59.0625C60.1945 48.2617 61.1133 49.1805 61.1133 50.3125Z" fill="#D9E6FC"/>
<path d="M45.8008 61.25C45.8008 62.382 44.882 63.3008 43.75 63.3008H26.25C25.118 63.3008 24.1992 62.382 24.1992 61.25C24.1992 60.118 25.118 59.1992 26.25 59.1992H43.75C44.882 59.1992 45.8008 60.118 45.8008 61.25Z" fill="#94DFDA"/>
<path d="M45.8008 61.25C45.8008 62.382 44.882 63.3008 43.75 63.3008H35V59.1992H43.75C44.882 59.1992 45.8008 60.118 45.8008 61.25Z" fill="#61A7C5"/>
<path d="M70 39.375V50.3125C70 51.4445 69.0813 52.3633 67.9492 52.3633H2.05078C0.91875 52.3633 0 51.4445 0 50.3125V39.375C0 38.243 0.91875 37.3242 2.05078 37.3242H67.9492C69.0813 37.3242 70 38.243 70 39.375Z" fill="#D9E6FC"/>
<path d="M70 39.375V50.3125C70 51.4445 69.0812 52.3633 67.9492 52.3633H35V37.3242H67.9492C69.0812 37.3242 70 38.243 70 39.375Z" fill="#BED9FD"/>
</svg>
