<svg width="63" height="75" viewBox="0 0 63 75" fill="none" xmlns="http://www.w3.org/2000/svg">
<path d="M42.3604 6.5918V68.4082C42.3604 72.0425 39.4028 75 35.7686 75H7.05762C3.42334 75 0.46582 72.0425 0.46582 68.4082V6.5918C0.46582 2.95752 3.42334 0 7.05762 0H35.7686C39.4028 0 42.3604 2.95752 42.3604 6.5918Z" fill="#EEF4FF"/>
<path d="M42.3604 6.5918V68.4082C42.3604 72.0425 39.4028 75 35.7686 75H21.4131V0H35.7686C39.4028 0 42.3604 2.95752 42.3604 6.5918Z" fill="#D9E6FC"/>
<path d="M35.7686 0H7.05762C3.42334 0 0.46582 2.95752 0.46582 6.5918V68.4082C0.46582 72.0425 3.42334 75 7.05762 75H35.7686C39.4028 75 42.3604 72.0425 42.3604 68.4082V6.5918C42.3604 2.95752 39.4028 0 35.7686 0ZM37.9658 61.084H4.86035V6.5918C4.86035 5.38037 5.84619 4.39453 7.05762 4.39453H35.7686C36.98 4.39453 37.9658 5.38037 37.9658 6.5918V61.084Z" fill="#425796"/>
<path d="M42.3604 6.5918V68.4082C42.3604 72.0425 39.4028 75 35.7686 75H21.4131V61.084H37.9658V6.5918C37.9658 5.38037 36.98 4.39453 35.7686 4.39453H21.4131V0H35.7686C39.4028 0 42.3604 2.95752 42.3604 6.5918Z" fill="#283758"/>
<path d="M50.5342 46.875C50.5342 53.4621 47.1378 58.644 40.4736 59.5972C39.1305 59.7864 37.9658 58.7405 37.9658 57.4219V55.7329C33.312 54.7641 29.7627 50.729 29.7627 45.7031C29.7627 39.9727 34.4209 35.3101 40.1484 35.3027C46.5554 35.3027 50.5342 40.3806 50.5342 46.875Z" fill="#DD5958"/>
<path d="M50.5343 46.8747C50.5343 53.4618 47.1379 58.6437 40.4737 59.5969C40.3555 59.6136 40.2555 59.6189 40.1485 59.6189C40.1485 34.1449 40.1403 35.3025 40.1632 35.3025C46.2701 35.3025 50.5343 40.0617 50.5343 46.8747Z" fill="#D8225B"/>
<path d="M23.9458 30.0396C24.2145 28.7513 25.4961 27.9963 26.7393 28.3667C28.0131 28.7819 28.5258 30.0441 28.2026 31.106C27.7052 32.6649 25.8797 33.1232 24.7075 32.168C24.1263 31.6936 23.7835 30.9069 23.9458 30.0396Z" fill="#DD5958"/>
<path d="M16.9146 30.0395C17.0344 29.4653 17.3549 28.9753 17.8492 28.642C18.977 27.8986 20.4296 28.3323 21.0059 29.4345C21.591 30.5289 21.1467 31.8598 20.1036 32.4052C18.4832 33.2724 16.5692 31.885 16.9146 30.0395Z" fill="#DD5958"/>
<path d="M9.88325 30.0396C10.1519 28.7513 11.4335 27.9963 12.6767 28.3667C13.9343 28.7766 14.4647 30.0181 14.1401 31.1075C13.7361 32.3473 12.5094 32.9006 11.3994 32.5708C10.37 32.2572 9.66264 31.2182 9.88325 30.0396Z" fill="#DD5958"/>
<path d="M32.9854 21.0938C32.9854 22.3066 32.001 23.291 30.7881 23.291H17.8975C16.6846 23.291 15.7002 22.3066 15.7002 21.0938C15.7002 19.8809 16.6846 18.8965 17.8975 18.8965H30.7881C32.001 18.8965 32.9854 19.8809 32.9854 21.0938Z" fill="#9CE0F6"/>
<path d="M32.9854 21.0938C32.9854 22.3066 32.001 23.291 30.7881 23.291H21.4131V18.8965H30.7881C32.001 18.8965 32.9854 19.8809 32.9854 21.0938Z" fill="#61A7C5"/>
<path d="M23.6104 11.7188C23.6104 12.9316 22.626 13.916 21.4131 13.916H12.0381C10.8252 13.916 9.84082 12.9316 9.84082 11.7188C9.84082 10.5059 10.8252 9.52148 12.0381 9.52148H21.4131C22.626 9.52148 23.6104 10.5059 23.6104 11.7188Z" fill="#FFE278"/>
<path d="M23.6104 11.7188C23.6104 12.9316 22.626 13.916 21.4131 13.916V9.52148C22.626 9.52148 23.6104 10.5059 23.6104 11.7188Z" fill="#FFB454"/>
</svg>
