<svg width="75" height="75" viewBox="0 0 75 75" fill="none" xmlns="http://www.w3.org/2000/svg">
<path d="M72.8027 17.7246H53.9062C52.6928 17.7246 51.709 18.7084 51.709 19.9219V64.8926C51.709 69.0995 55.1193 72.5098 59.3262 72.5098H67.3828C71.5897 72.5098 75 69.0995 75 64.8926V19.9219C75 18.7084 74.0162 17.7246 72.8027 17.7246Z" fill="#BED9FD"/>
<path d="M62.6924 72.5098H10.9863C4.92773 72.5098 0 67.5806 0 61.5234V4.6875C0 3.47461 0.984375 2.49023 2.19727 2.49023H53.9062C55.1191 2.49023 56.1035 3.47461 56.1035 4.6875V64.6714C56.1035 68.5091 58.842 71.8671 62.6924 72.5098Z" fill="#EEF4FF"/>
<path d="M62.6924 72.5098H25.7812V2.49023H53.9062C55.1191 2.49023 56.1035 3.47461 56.1035 4.6875V64.6714C56.1035 68.5091 58.842 71.8671 62.6924 72.5098Z" fill="#D9E6FC"/>
<path d="M46.7285 59.7656C46.7285 60.9785 45.7441 61.9629 44.5312 61.9629H11.7188C10.5059 61.9629 9.52148 60.9785 9.52148 59.7656C9.52148 58.5527 10.5059 57.5684 11.7188 57.5684H44.5312C45.7441 57.5684 46.7285 58.5527 46.7285 59.7656Z" fill="#425796"/>
<path d="M46.7285 59.7656C46.7285 60.9785 45.7441 61.9629 44.5312 61.9629H25.7812V57.5684H44.5312C45.7441 57.5684 46.7285 58.5527 46.7285 59.7656Z" fill="#283758"/>
<path d="M18.75 49.0723H11.7188C10.5053 49.0723 9.52148 48.0885 9.52148 46.875C9.52148 45.6615 10.5053 44.6777 11.7188 44.6777H18.75C19.9635 44.6777 20.9473 45.6615 20.9473 46.875C20.9473 48.0885 19.9635 49.0723 18.75 49.0723Z" fill="#425796"/>
<path d="M18.75 39.6973H11.7188C10.5053 39.6973 9.52148 38.7135 9.52148 37.5C9.52148 36.2865 10.5053 35.3027 11.7188 35.3027H18.75C19.9635 35.3027 20.9473 36.2865 20.9473 37.5C20.9473 38.7135 19.9635 39.6973 18.75 39.6973Z" fill="#425796"/>
<path d="M46.7285 24.6094C46.7285 25.8223 45.7441 26.8066 44.5312 26.8066H11.7188C10.5059 26.8066 9.52148 25.8223 9.52148 24.6094C9.52148 23.3965 10.5059 22.4121 11.7188 22.4121H44.5312C45.7441 22.4121 46.7285 23.3965 46.7285 24.6094Z" fill="#425796"/>
<path d="M46.7285 24.6094C46.7285 25.8223 45.7441 26.8066 44.5312 26.8066H25.7812V22.4121H44.5312C45.7441 22.4121 46.7285 23.3965 46.7285 24.6094Z" fill="#283758"/>
<path d="M46.7285 15.2344C46.7285 16.4473 45.7441 17.4316 44.5312 17.4316H11.7188C10.5059 17.4316 9.52148 16.4473 9.52148 15.2344C9.52148 14.0215 10.5059 13.0371 11.7188 13.0371H44.5312C45.7441 13.0371 46.7285 14.0215 46.7285 15.2344Z" fill="#425796"/>
<path d="M44.5312 17.4316H25.7812V13.0371H44.5312C45.7441 13.0371 46.7285 14.0215 46.7285 15.2344C46.7285 16.4473 45.7441 17.4316 44.5312 17.4316Z" fill="#283758"/>
<path d="M46.582 33.9844V50.3906C46.582 51.6035 45.5977 52.5879 44.3848 52.5879H27.9785C26.7656 52.5879 25.7812 51.6035 25.7812 50.3906V33.9844C25.7812 32.7715 26.7656 31.7871 27.9785 31.7871H44.3848C45.5977 31.7871 46.582 32.7715 46.582 33.9844Z" fill="#FFE278"/>
<path d="M46.582 33.9844V50.3906C46.582 51.6035 45.5977 52.5879 44.3848 52.5879H36.3281V31.7871H44.3848C45.5977 31.7871 46.582 32.7715 46.582 33.9844Z" fill="#FFB454"/>
</svg>
