<svg width="75" height="67" viewBox="0 0 75 67" fill="none" xmlns="http://www.w3.org/2000/svg">
<path d="M29.7277 62.0319C29.112 62.0319 28.6124 61.5324 28.6124 60.9167V53.5971C28.6124 52.9814 29.112 52.4824 29.7277 52.4824C30.3433 52.4824 30.8423 52.9814 30.8423 53.5971V60.9167C30.8429 61.5324 30.3433 62.0319 29.7277 62.0319Z" fill="#3D6FB7"/>
<path d="M20.7018 63.4462C20.7018 64.8435 21.8342 65.9759 23.2315 65.9759H36.224C37.6207 65.9759 38.7537 64.8435 38.7537 63.4462C38.7537 62.0495 37.6207 60.9165 36.224 60.9165H23.2315C21.8342 60.9165 20.7018 62.0495 20.7018 63.4462Z" fill="#7393D8"/>
<path d="M36.2239 60.9165H31.5164C32.9137 60.9165 34.0461 62.0495 34.0461 63.4462C34.0461 64.8435 32.9137 65.9759 31.5164 65.9759H36.2239C37.6206 65.9759 38.7536 64.8435 38.7536 63.4462C38.7536 62.0495 37.6206 60.9165 36.2239 60.9165Z" fill="#3D6FB7"/>
<path d="M55.323 8.05664H4.13303C1.85394 8.05664 0 9.91058 0 12.1897V50.58C0 52.8591 1.85394 54.7125 4.13303 54.7125H55.323C57.6021 54.7125 59.4561 52.8585 59.4561 50.58V12.1897C59.4561 9.91058 57.6021 8.05664 55.323 8.05664V8.05664Z" fill="#7393D8"/>
<path d="M55.323 8.05664H50.6819C52.961 8.05664 54.8149 9.91058 54.8149 12.1897V50.58C54.8149 52.8591 52.961 54.7125 50.6819 54.7125H55.323C57.6021 54.7125 59.4561 52.8585 59.4561 50.58V12.1897C59.4561 9.91058 57.6021 8.05664 55.323 8.05664V8.05664Z" fill="#3D6FB7"/>
<path d="M57.2262 12.1898V46.498H2.22986V12.1898C2.22986 11.1398 3.08302 10.2866 4.13301 10.2866H55.323C56.3724 10.2866 57.2262 11.1398 57.2262 12.1898Z" fill="#EDEDED"/>
<path d="M55.323 10.2866H54.3502C54.6466 10.8565 54.8148 11.5037 54.8148 12.1898V46.498H57.2261V12.1898C57.2261 11.1398 56.3724 10.2866 55.323 10.2866Z" fill="#C9C9C9"/>
<path d="M25.9998 18.3524C25.5878 17.9994 25.0443 17.8431 24.5081 17.9261L12.4563 19.7726C11.5431 19.9128 10.8799 20.6853 10.8799 21.6094V29.6769C10.2636 29.3364 9.55524 29.1425 8.8028 29.1425C6.42757 29.1425 4.49524 31.0742 4.49524 33.4494C4.49524 35.8241 6.42757 37.7564 8.8028 37.7564C11.1774 37.7564 13.1098 35.8247 13.1098 33.4494V21.9287L24.4177 20.1955V27.6021C23.8014 27.2616 23.0936 27.0676 22.3406 27.0676C19.9659 27.0676 18.0336 28.9994 18.0336 31.3746C18.0336 33.7498 19.9659 35.6816 22.3406 35.6816C24.7158 35.6816 26.6476 33.7498 26.6476 31.3746V19.7629C26.6476 19.2199 26.4118 18.706 25.9998 18.3524Z" fill="#4A4A68"/>
<path d="M57.261 35.9988L69.8684 57.8347C70.6277 59.1502 72.3094 59.6011 73.6243 58.8412C74.9398 58.0819 75.3902 56.4001 74.6308 55.0852L62.024 33.2493C61.2647 31.9344 59.583 31.4835 58.2675 32.2428C56.9526 33.0021 56.5022 34.6838 57.261 35.9988Z" fill="#40C6C2"/>
<path d="M60.653 41.8735L69.8683 57.8351C70.6276 59.1501 72.3093 59.601 73.6248 58.8416C74.9398 58.0823 75.3901 56.4006 74.6313 55.0851L65.416 39.124L60.653 41.8735Z" fill="#4A4A68"/>
<path d="M31.4541 28.5672C30.8384 28.5672 30.3389 28.0682 30.3389 27.4525V25.6684C30.3389 25.0527 30.8384 24.5537 31.4541 24.5537C32.0698 24.5537 32.5687 25.0527 32.5687 25.6684V27.4525C32.5687 28.0682 32.0698 28.5672 31.4541 28.5672Z" fill="#E8626C"/>
<path d="M35.9356 30.8473C35.3199 30.8473 34.8209 30.3483 34.8209 29.732V23.3892C34.8209 22.7735 35.3199 22.2739 35.9356 22.2739C36.5518 22.2739 37.0508 22.7735 37.0508 23.3892V29.732C37.0508 30.3483 36.5518 30.8473 35.9356 30.8473Z" fill="#E8626C"/>
<path d="M40.416 36.6238C39.7997 36.6238 39.3008 36.1248 39.3008 35.5091V17.6117C39.3008 16.996 39.7997 16.4971 40.416 16.4971C41.0317 16.4971 41.5307 16.996 41.5307 17.6117V35.5091C41.5307 36.1248 41.0317 36.6238 40.416 36.6238Z" fill="#E8626C"/>
<path d="M44.8975 30.8473C44.2818 30.8473 43.7828 30.3483 43.7828 29.732V23.3892C43.7828 22.7735 44.2818 22.2739 44.8975 22.2739C45.5132 22.2739 46.0127 22.7735 46.0127 23.3892V29.732C46.0127 30.3483 45.5132 30.8473 44.8975 30.8473Z" fill="#E8626C"/>
<path d="M49.3784 28.5677C48.7628 28.5677 48.2638 28.0688 48.2638 27.4531V25.6684C48.2638 25.0527 48.7628 24.5537 49.3784 24.5537C49.9941 24.5537 50.4937 25.0527 50.4937 25.6684V27.4531C50.4937 28.0688 49.9941 28.5677 49.3784 28.5677Z" fill="#E8626C"/>
<path d="M53.8593 32.5836C53.2436 32.5836 52.7446 32.0846 52.7446 31.4689V21.6527C52.7446 21.037 53.2436 20.5381 53.8593 20.5381C54.475 20.5381 54.9745 21.037 54.9745 21.6527V31.4689C54.9745 32.0846 54.4755 32.5836 53.8593 32.5836Z" fill="#E8626C"/>
<path d="M58.3403 28.5677C57.7246 28.5677 57.2251 28.0688 57.2251 27.4531V25.6684C57.2251 25.0527 57.7246 24.5537 58.3403 24.5537C58.956 24.5537 59.4556 25.0527 59.4556 25.6684V27.4531C59.4556 28.0688 58.956 28.5677 58.3403 28.5677Z" fill="#E8626C"/>
<path d="M51.9659 57.9259C51.3296 59.5579 50.4438 60.4436 48.8119 61.0805C47.9198 61.4278 47.9198 62.673 48.8119 63.0203C50.4438 63.6571 51.3296 64.5429 51.9659 66.1748C52.3138 67.0663 53.5583 67.0663 53.9062 66.1748C54.5425 64.5429 55.4283 63.6571 57.0602 63.0203C57.9523 62.673 57.9523 61.4278 57.0602 61.0805C55.4283 60.4436 54.5425 59.5579 53.9062 57.9259C53.5583 57.0345 52.3138 57.0345 51.9659 57.9259Z" fill="#FFAF5C"/>
<path d="M68.19 20.1505C67.5531 21.7824 66.6674 22.6682 65.0354 23.3051C64.1439 23.6524 64.1439 24.8975 65.0354 25.2448C66.6674 25.8817 67.5531 26.7675 68.19 28.3994C68.5373 29.2909 69.7825 29.2909 70.1298 28.3994C70.7666 26.7669 71.6524 25.8817 73.2843 25.2448C74.1758 24.8975 74.1758 23.6524 73.2843 23.3051C71.6524 22.6682 70.7666 21.7824 70.1298 20.1505C69.7825 19.2584 68.5379 19.2584 68.19 20.1505Z" fill="#EFD76F"/>
</svg>
