<svg width="67" height="74" viewBox="0 0 67 74" fill="none" xmlns="http://www.w3.org/2000/svg">
<path d="M28.3281 36.3281H40.0469V52.7344C40.0469 53.356 39.7999 53.9521 39.3604 54.3917C38.9209 54.8312 38.3247 55.0781 37.7031 55.0781H28.3281V36.3281Z" fill="#F0C6A4"/>
<path d="M40.0469 39.8438H56.4531V51.5625H40.0469V39.8438Z" fill="#F0C6A4"/>
<path d="M13.0938 19.9219H34.1875L33.7788 14.0625L33.6162 11.7188L33.4522 9.375L33.2896 7.03125L33.1943 5.66455C33.1455 5.07883 32.8783 4.53284 32.4459 4.13482C32.0134 3.73679 31.4471 3.51579 30.8594 3.51562H16.4219C15.8341 3.51579 15.2679 3.73679 14.8354 4.13482C14.4029 4.53284 14.1358 5.07883 14.0869 5.66455L13.9917 7.03125L13.8291 9.375L13.665 11.7188L13.5024 14.0625L13.0938 19.9219Z" fill="#4F5659"/>
<path d="M13.0938 19.9219L14.2656 26.9531H33.0156L34.1875 19.9219H13.0938Z" fill="#4F5659"/>
<path d="M19.9023 62.1094H27.3789C27.9601 62.1094 28.5207 61.8934 28.9516 61.5034C29.3826 61.1134 29.6533 60.5772 29.7111 59.9988L33.0156 26.9531H14.2656L17.5702 59.9988C17.628 60.5772 17.8987 61.1134 18.3296 61.5034C18.7606 61.8934 19.3211 62.1094 19.9023 62.1094Z" fill="#3397E8"/>
<path d="M13.8291 9.375H33.4521L33.2895 7.03125H13.9917L13.8291 9.375Z" fill="#596063"/>
<path d="M13.5024 14.0625H33.7788L33.6162 11.7188H13.665L13.5024 14.0625Z" fill="#596063"/>
<path d="M27.1562 3.51562V17.5781C27.1562 17.8889 27.2797 18.187 27.4995 18.4068C27.7193 18.6265 28.0173 18.75 28.3281 18.75C28.6389 18.75 28.937 18.6265 29.1568 18.4068C29.3765 18.187 29.5 17.8889 29.5 17.5781V3.51562H27.1562Z" fill="#6A7073"/>
<path d="M22.4688 3.51562V17.5781C22.4688 17.8889 22.5922 18.187 22.812 18.4068C23.0318 18.6265 23.3298 18.75 23.6406 18.75C23.9514 18.75 24.2495 18.6265 24.4693 18.4068C24.689 18.187 24.8125 17.8889 24.8125 17.5781V3.51562H22.4688Z" fill="#6A7073"/>
<path d="M17.7812 3.51562V17.5781C17.7812 17.8889 17.9047 18.187 18.1245 18.4068C18.3443 18.6265 18.6423 18.75 18.9531 18.75C19.2639 18.75 19.562 18.6265 19.7818 18.4068C20.0015 18.187 20.125 17.8889 20.125 17.5781V3.51562H17.7812Z" fill="#6A7073"/>
<path d="M27.1562 22.2656V26.9531H29.5V22.2656C29.5 21.9548 29.3765 21.6568 29.1568 21.437C28.937 21.2172 28.6389 21.0938 28.3281 21.0938C28.0173 21.0938 27.7193 21.2172 27.4995 21.437C27.2797 21.6568 27.1562 21.9548 27.1562 22.2656Z" fill="#6A7073"/>
<path d="M22.4688 22.2656V26.9531H24.8125V22.2656C24.8125 21.9548 24.689 21.6568 24.4693 21.437C24.2495 21.2172 23.9514 21.0938 23.6406 21.0938C23.3298 21.0938 23.0318 21.2172 22.812 21.437C22.5922 21.6568 22.4688 21.9548 22.4688 22.2656Z" fill="#6A7073"/>
<path d="M17.7812 22.2656V26.9531H20.125V22.2656C20.125 21.9548 20.0015 21.6568 19.7818 21.437C19.562 21.2172 19.2639 21.0938 18.9531 21.0938C18.6423 21.0938 18.3443 21.2172 18.1245 21.437C17.9047 21.6568 17.7812 21.9548 17.7812 22.2656Z" fill="#6A7073"/>
<path d="M14.2656 72.6562H21.2969C22.229 72.6552 23.1226 72.2845 23.7816 71.6254C24.4407 70.9663 24.8115 70.0727 24.8125 69.1406V66.7969C24.8125 66.4861 24.689 66.188 24.4693 65.9682C24.2495 65.7485 23.9514 65.625 23.6406 65.625C23.3298 65.625 23.0318 65.7485 22.812 65.9682C22.5922 66.188 22.4688 66.4861 22.4688 66.7969V69.1406C22.4684 69.4513 22.3448 69.7492 22.1251 69.9689C21.9054 70.1886 21.6076 70.3122 21.2969 70.3125H14.2656C13.9549 70.3122 13.6571 70.1886 13.4374 69.9689C13.2177 69.7492 13.0941 69.4513 13.0938 69.1406V64.4531C13.0927 63.521 12.722 62.6274 12.0629 61.9684C11.4038 61.3093 10.5102 60.9385 9.57812 60.9375H2.54688C2.23607 60.9375 1.938 61.061 1.71823 61.2807C1.49847 61.5005 1.375 61.7986 1.375 62.1094C1.375 62.4202 1.49847 62.7182 1.71823 62.938C1.938 63.1578 2.23607 63.2812 2.54688 63.2812H9.57812C9.88882 63.2816 10.1867 63.4052 10.4064 63.6249C10.6261 63.8446 10.7497 64.1424 10.75 64.4531V69.1406C10.751 70.0727 11.1218 70.9663 11.7809 71.6254C12.4399 72.2845 13.3335 72.6552 14.2656 72.6562Z" fill="#7E8589"/>
<path d="M14.2656 22.2656H33.0156C34.31 22.2656 35.3594 21.2163 35.3594 19.9219C35.3594 18.6275 34.31 17.5781 33.0156 17.5781H14.2656C12.9712 17.5781 11.9219 18.6275 11.9219 19.9219C11.9219 21.2163 12.9712 22.2656 14.2656 22.2656Z" fill="#A3D4F7"/>
<path d="M21.2969 66.7969H25.9844L27.1562 62.1094H20.125L21.2969 66.7969Z" fill="#2978B8"/>
<path d="M23.6406 36.3281H14.2656C12.9712 36.3281 11.9219 37.3775 11.9219 38.6719C11.9219 39.9663 12.9712 41.0156 14.2656 41.0156H23.6406C24.935 41.0156 25.9844 39.9663 25.9844 38.6719C25.9844 37.3775 24.935 36.3281 23.6406 36.3281Z" fill="#F0C6A4"/>
<path d="M25.9844 41.0156H14.2656C12.9712 41.0156 11.9219 42.065 11.9219 43.3594C11.9219 44.6538 12.9712 45.7031 14.2656 45.7031H25.9844C27.2788 45.7031 28.3281 44.6538 28.3281 43.3594C28.3281 42.065 27.2788 41.0156 25.9844 41.0156Z" fill="#E8BF9E"/>
<path d="M23.6406 45.7031H14.2656C12.9712 45.7031 11.9219 46.7525 11.9219 48.0469C11.9219 49.3413 12.9712 50.3906 14.2656 50.3906H23.6406C24.935 50.3906 25.9844 49.3413 25.9844 48.0469C25.9844 46.7525 24.935 45.7031 23.6406 45.7031Z" fill="#E0B999"/>
<path d="M21.2969 50.3906H14.2656C12.9712 50.3906 11.9219 51.44 11.9219 52.7344C11.9219 54.0288 12.9712 55.0781 14.2656 55.0781H21.2969C22.5913 55.0781 23.6406 54.0288 23.6406 52.7344C23.6406 51.44 22.5913 50.3906 21.2969 50.3906Z" fill="#D1AD8F"/>
<path d="M22.4688 31.6406H37.7031C38.3247 31.6406 38.9209 31.8876 39.3604 32.3271C39.7999 32.7666 40.0469 33.3628 40.0469 33.9844V36.3281H22.4688C21.8471 36.3281 21.251 36.0812 20.8115 35.6417C20.3719 35.2021 20.125 34.606 20.125 33.9844C20.125 33.3628 20.3719 32.7666 20.8115 32.3271C21.251 31.8876 21.8471 31.6406 22.4688 31.6406Z" fill="#F0C6A4"/>
<path d="M40.0469 45.7031C39.7361 45.7031 39.438 45.5797 39.2182 45.3599C38.9985 45.1401 38.875 44.8421 38.875 44.5312V39.8438C38.875 39.5329 38.9985 39.2349 39.2182 39.0151C39.438 38.7953 39.7361 38.6719 40.0469 38.6719C40.3577 38.6719 40.6557 38.7953 40.8755 39.0151C41.0953 39.2349 41.2188 39.5329 41.2188 39.8438V44.5312C41.2188 44.8421 41.0953 45.1401 40.8755 45.3599C40.6557 45.5797 40.3577 45.7031 40.0469 45.7031Z" fill="#E0B999"/>
</svg>
